<svg width="6" height="7" viewBox="0 0 6 7" fill="none" xmlns="http://www.w3.org/2000/svg">
<path d="M5.77847 4.15975C5.74457 4.19358 5.61656 4.33825 5.49732 4.45725C4.79825 5.20567 2.97457 6.43067 2.02007 6.80458C1.87511 6.86467 1.50862 6.99183 1.31281 7C1.12518 7 0.946323 6.958 0.775645 6.87283C0.562884 6.75383 0.392207 6.56658 0.298685 6.3455C0.23848 6.19208 0.144959 5.733 0.144959 5.72483C0.0514369 5.22258 0 4.4065 0 3.50467C0 2.64542 0.0514369 1.86258 0.128008 1.35275C0.136775 1.34458 0.230297 0.774083 0.332586 0.578667C0.520214 0.221667 0.886702 0 1.27891 0H1.31281C1.56824 0.00875 2.10541 0.230417 2.10541 0.238583C3.00848 0.613083 4.79006 1.778 5.50609 2.55208C5.50609 2.55208 5.70775 2.751 5.79542 2.87525C5.9322 3.05375 6 3.27483 6 3.49592C6 3.74267 5.92343 3.9725 5.77847 4.15975Z" fill="#B4B4C5"/>
</svg>
