<svg width="40" height="37" viewBox="0 0 40 37" fill="none" xmlns="http://www.w3.org/2000/svg">
<path d="M7.78667 5.92L7.23133 2.22H5.238C4.94067 0.9472 3.906 0 2.66667 0C1.196 0 0 1.32756 0 2.96C0 4.59244 1.196 5.92 2.66667 5.92C3.906 5.92 4.94067 4.9728 5.23867 3.7H6.10133L6.43467 5.92H6.40933L9.85667 25.1718C8.21333 25.311 6.84467 26.7155 6.68333 28.4826C6.58867 29.5223 6.89667 30.5635 7.52867 31.3375C8.16133 32.1138 9.06267 32.56 10 32.56H11.3333C11.3333 35.0087 13.1273 37 15.3333 37C17.5393 37 19.3333 35.0087 19.3333 32.56H26.6667C26.6667 35.0087 28.4607 37 30.6667 37C32.8727 37 34.6667 35.0087 34.6667 32.56H37.3333C37.702 32.56 38 32.2292 38 31.82C38 31.4108 37.702 31.08 37.3333 31.08H34.4333C33.8827 29.358 32.4047 28.12 30.6667 28.12C28.9287 28.12 27.4507 29.358 26.9 31.08H19.1C18.5493 29.358 17.0713 28.12 15.3333 28.12C13.5953 28.12 12.1173 29.358 11.5667 31.08H10C9.43867 31.08 8.89867 30.8121 8.51733 30.3452C8.13267 29.8723 7.952 29.264 8.01 28.6313C8.11133 27.5147 9.04067 26.6407 10.1253 26.6407H10.6527C10.662 26.6407 10.6693 26.6407 10.6787 26.6407H36.6747C38.5087 26.64 40 24.9846 40 22.9496V5.92H7.78667ZM2.66667 4.44C1.93133 4.44 1.33333 3.77622 1.33333 2.96C1.33333 2.14378 1.93133 1.48 2.66667 1.48C3.402 1.48 4 2.14378 4 2.96C4 3.77622 3.402 4.44 2.66667 4.44ZM30.6667 29.6C32.1373 29.6 33.3333 30.9276 33.3333 32.56C33.3333 34.1924 32.1373 35.52 30.6667 35.52C29.196 35.52 28 34.1924 28 32.56C28 30.9276 29.196 29.6 30.6667 29.6ZM15.3333 29.6C16.804 29.6 18 30.9276 18 32.56C18 34.1924 16.804 35.52 15.3333 35.52C13.8627 35.52 12.6667 34.1924 12.6667 32.56C12.6667 30.9276 13.8627 29.6 15.3333 29.6ZM38.6667 22.9496C38.6667 24.1684 37.7733 25.16 36.6753 25.16H11.214L8.034 7.4H38.6667V22.9496Z" fill="#064E3B"/>
</svg>
