<svg width="1024" height="800" viewBox="0 0 1024 800" fill="none" xmlns="http://www.w3.org/2000/svg">
<path opacity="0.05" d="M943.729 384.063C885.426 401.457 830.414 423.943 779.057 451.293C818.959 355.446 836.376 255.773 830.837 154.286L827.912 100.712L779.805 136.892C717.467 183.777 663.107 236.794 617.519 295.076C600.71 229.297 574.709 165.292 539.62 103.576L512.001 55L484.384 103.576C449.295 165.292 423.294 229.297 406.483 295.076C360.895 236.792 306.535 183.777 244.197 136.892L196.09 100.711L193.165 154.284C187.624 255.773 205.041 355.444 244.943 451.291C193.586 423.941 138.574 401.456 80.2709 384.062L19 365.785L41.2138 416.202C82.1797 509.182 146.327 592.019 231.879 662.415C300.555 718.926 379.747 764.439 467.258 797.688L473.34 800H550.66L556.742 797.688C644.255 764.438 723.449 718.924 792.121 662.415C877.671 592.019 941.822 509.18 982.786 416.2L1005 365.783L943.729 384.063ZM770.395 215.012C766.887 306.089 743.427 395.23 700.377 480.754C695.56 490.325 690.401 499.941 684.748 509.955C670.992 519.875 657.576 530.206 644.515 540.953C642.048 542.983 639.615 545.034 637.181 547.088C639.348 524.112 640.448 501.043 640.448 478.012C640.448 442.384 637.911 407.116 632.894 372.273C670.583 314.907 716.645 262.216 770.395 215.012ZM323.623 480.752C280.573 395.23 257.113 306.09 253.605 215.012C307.347 262.211 353.417 314.909 391.106 372.271C386.089 407.114 383.552 442.383 383.552 478.01C383.552 501.041 384.652 524.109 386.819 547.085C384.385 545.032 381.954 542.982 379.487 540.951C366.426 530.204 353.008 519.874 339.255 509.953C333.638 500.003 328.375 490.194 323.623 480.752ZM275 626.933C213.159 576.045 163.41 518.156 126.528 454.265C204.167 484.612 274.53 525.553 336.366 576.437C398.027 627.177 447.807 685.096 484.756 749.021C406.99 718.551 336.455 677.502 275 626.933ZM458.406 616.104C449.21 570.706 444.536 524.283 444.536 478.014C444.536 374.161 467.199 273.542 512.001 178.113C556.803 273.544 579.464 374.163 579.464 478.014C579.464 524.31 574.786 570.755 565.582 616.171C546.09 637.765 528.206 660.267 512.023 683.616C495.839 660.246 477.94 637.728 458.406 616.104ZM749.003 626.933C690.271 675.261 623.247 714.893 549.542 744.906C548.306 742.599 547.058 740.308 545.791 738.016C582.078 678.381 629.746 624.071 687.634 576.435C749.472 525.553 819.833 484.611 897.472 454.263C860.592 518.158 810.843 576.047 749.003 626.933Z" fill="white"/>
</svg>
