<svg width="1288" height="1038" viewBox="0 0 1288 1038" fill="none" xmlns="http://www.w3.org/2000/svg">
<path opacity="0.05" d="M1207.96 458.48C1131.8 482.715 1059.94 514.044 992.853 552.15C1044.98 418.608 1067.73 279.735 1060.49 138.334L1056.67 63.6904L993.83 114.099C912.398 179.423 841.389 253.291 781.838 334.495C759.881 242.846 725.916 153.669 680.08 67.6802L644.001 0L607.926 67.6802C562.089 153.669 528.125 242.846 506.165 334.495C446.613 253.289 375.604 179.423 294.173 114.099L231.331 63.688L227.51 138.332C220.272 279.735 243.023 418.605 295.147 552.148C228.06 514.042 156.198 482.713 80.0375 458.478L0 433.013L29.0176 503.259C82.5308 632.807 166.326 748.223 278.081 846.304C367.792 925.04 471.239 988.453 585.555 1034.78L593.499 1038H694.501L702.446 1034.78C816.764 988.451 920.213 925.038 1009.92 846.304C1121.67 748.223 1205.47 632.804 1258.98 503.256L1288 433.01L1207.96 458.48ZM981.538 222.943C976.955 349.839 946.31 474.039 890.075 593.198C883.782 606.533 877.043 619.931 869.658 633.883C851.689 647.706 834.164 662.099 817.103 677.072C813.88 679.902 810.701 682.759 807.523 685.621C810.354 653.609 811.79 621.466 811.79 589.378C811.79 539.738 808.476 490.599 801.923 442.053C851.156 362.126 911.326 288.712 981.538 222.943ZM397.925 593.195C341.69 474.039 311.045 349.841 306.462 222.943C376.664 288.705 436.844 362.128 486.077 442.05C479.524 490.597 476.21 539.736 476.21 589.375C476.21 621.464 477.647 653.604 480.477 685.616C477.299 682.756 474.123 679.899 470.899 677.07C453.839 662.096 436.311 647.703 418.345 633.881C411.008 620.017 404.133 606.351 397.925 593.195ZM334.409 796.867C253.628 725.966 188.641 645.31 140.463 556.292C241.881 598.574 333.796 655.615 414.571 726.512C495.119 797.208 560.146 877.906 608.412 966.971C506.826 924.518 414.688 867.325 334.409 796.867ZM573.99 781.78C561.978 718.527 555.873 653.847 555.873 589.38C555.873 444.684 585.477 304.492 644.001 171.532C702.525 304.494 732.127 444.686 732.127 589.38C732.127 653.884 726.017 718.595 713.994 781.873C688.532 811.96 665.17 843.312 644.031 875.844C622.889 843.282 599.508 811.908 573.99 781.78ZM953.594 796.867C876.873 864.203 789.32 919.422 693.04 961.238C691.426 958.024 689.796 954.831 688.141 951.638C735.542 868.549 797.81 792.88 873.429 726.509C954.207 655.615 1046.12 598.572 1147.54 556.289C1099.36 645.312 1034.37 725.969 953.594 796.867Z" fill="white"/>
</svg>
