<svg width="1440" height="800" viewBox="0 0 1440 800" fill="none" xmlns="http://www.w3.org/2000/svg">
<path opacity="0.05" d="M1184.13 353.357C1121.45 372.035 1062.31 396.18 1007.1 425.549C1050 322.626 1068.72 215.596 1062.77 106.616L1059.62 49.087L1007.9 87.9377C940.887 138.284 882.448 195.215 833.438 257.8C815.368 187.164 787.415 118.435 749.693 52.162L720.001 0L690.312 52.162C652.589 118.435 624.637 187.164 606.564 257.8C557.555 195.213 499.115 138.284 432.099 87.9377L380.381 49.0852L377.237 106.614C371.279 215.596 390.003 322.625 432.901 425.548C377.689 396.179 318.548 372.033 255.869 353.355L190 333.728L213.881 387.868C257.921 487.712 326.883 576.665 418.856 652.258C492.686 712.941 577.821 761.814 671.9 797.518L678.439 800H761.561L768.1 797.518C862.181 761.812 947.318 712.939 1021.14 652.258C1113.11 576.665 1182.08 487.711 1226.12 387.866L1250 333.727L1184.13 353.357ZM997.788 171.825C994.016 269.626 968.795 365.348 922.515 457.185C917.336 467.463 911.79 477.789 905.712 488.542C890.924 499.195 876.501 510.288 862.461 521.828C859.808 524.009 857.192 526.211 854.576 528.417C856.906 503.745 858.088 478.972 858.088 454.241C858.088 415.983 855.361 378.111 849.968 340.696C890.485 279.095 940.004 222.514 997.788 171.825ZM517.485 457.183C471.205 365.348 445.984 269.627 442.212 171.825C499.987 222.509 549.515 279.097 590.032 340.694C584.639 378.109 581.912 415.981 581.912 454.239C581.912 478.97 583.094 503.741 585.424 528.413C582.808 526.209 580.194 524.007 577.541 521.827C563.501 510.286 549.076 499.193 534.29 488.54C528.252 477.855 522.594 467.322 517.485 457.183ZM465.212 614.156C398.731 559.512 345.248 497.349 305.598 428.741C389.063 461.329 464.708 505.291 531.185 559.932C597.473 614.418 650.989 676.613 690.712 745.257C607.108 712.538 531.281 668.459 465.212 614.156ZM662.383 602.528C652.497 553.778 647.473 503.928 647.473 454.243C647.473 342.723 671.837 234.676 720.001 132.202C768.165 234.678 792.527 342.725 792.527 454.243C792.527 503.957 787.499 553.83 777.603 602.599C756.649 625.788 737.422 649.951 720.025 675.024C702.626 649.928 683.384 625.748 662.383 602.528ZM974.79 614.156C911.65 666.052 839.596 708.61 760.359 740.838C759.031 738.362 757.689 735.901 756.327 733.44C795.337 669.402 846.582 611.083 908.815 559.93C975.295 505.291 1050.94 461.327 1134.4 428.739C1094.75 497.35 1041.27 559.513 974.79 614.156Z" fill="white"/>
</svg>
