<svg width="768" height="1239" viewBox="0 0 768 1239" fill="none" xmlns="http://www.w3.org/2000/svg">
<g clip-path="url(#clip0_250_335)">
<path opacity="0.05" d="M1317 547.261C1234.22 576.189 1156.11 613.585 1083.19 659.07C1139.84 499.668 1164.57 333.904 1156.71 165.121L1152.56 76.0235L1084.25 136.194C995.737 214.167 918.553 302.339 853.824 399.267C829.957 289.871 793.039 183.426 743.217 80.7859L704.001 0L664.789 80.7859C614.966 183.426 578.049 289.871 554.179 399.267C489.449 302.336 412.265 214.167 323.753 136.194L255.447 76.0207L251.294 165.119C243.426 333.904 268.155 499.665 324.812 659.067C251.891 613.582 173.781 576.186 90.9973 547.258L4 516.862L35.5409 600.71C93.7074 755.344 184.789 893.11 306.262 1010.18C403.774 1104.17 516.216 1179.86 640.472 1235.16L649.108 1239H758.892L767.528 1235.16C891.786 1179.86 1004.23 1104.16 1101.74 1010.18C1223.21 893.11 1314.3 755.342 1372.46 600.708L1404 516.859L1317 547.261ZM1070.89 266.114C1065.91 417.583 1032.6 565.832 971.473 708.065C964.632 723.983 957.307 739.975 949.28 756.63C929.749 773.129 910.7 790.309 892.156 808.182C888.652 811.559 885.197 814.969 881.742 818.385C884.819 780.175 886.38 741.808 886.38 703.506C886.38 644.254 882.778 585.6 875.655 527.652C929.169 432.248 994.571 344.619 1070.89 266.114ZM436.527 708.062C375.402 565.832 342.092 417.585 337.11 266.114C413.417 344.611 478.831 432.251 532.345 527.65C525.222 585.597 521.619 644.251 521.619 703.503C521.619 741.806 523.181 780.169 526.258 818.38C522.803 814.967 519.351 811.556 515.847 808.179C497.303 790.306 478.251 773.126 458.722 756.627C450.748 740.078 443.275 723.766 436.527 708.062ZM367.488 951.174C279.683 866.544 209.045 770.269 156.677 664.013C266.914 714.483 366.821 782.57 454.621 867.195C542.172 951.58 612.854 1047.91 665.317 1154.22C554.898 1103.54 454.748 1035.28 367.488 951.174ZM627.903 933.165C614.845 857.664 608.21 780.459 608.21 703.509C608.21 530.793 640.389 363.455 704.001 204.748C767.614 363.457 799.79 530.796 799.79 703.509C799.79 780.503 793.149 857.745 780.08 933.276C752.404 969.189 727.011 1006.61 704.033 1045.44C681.053 1006.58 655.64 969.128 627.903 933.165ZM1040.51 951.174C957.122 1031.55 861.957 1097.46 757.305 1147.37C755.55 1143.54 753.778 1139.73 751.98 1135.92C803.502 1036.74 871.184 946.414 953.379 867.192C1041.18 782.57 1141.09 714.48 1251.32 664.01C1198.96 770.272 1128.32 866.546 1040.51 951.174Z" fill="white"/>
</g>
<defs>
<clipPath id="clip0_250_335">
<rect width="768" height="1239" fill="white"/>
</clipPath>
</defs>
</svg>
