<svg width="1024" height="800" viewBox="0 0 1024 800" fill="none" xmlns="http://www.w3.org/2000/svg">
<path opacity="0.05" d="M912.203 359.77C858.158 375.88 807.163 396.706 759.556 422.036C796.544 333.265 812.689 240.951 807.554 146.956L804.843 97.3375L760.249 130.846C702.463 174.27 652.073 223.373 609.813 277.352C594.232 216.429 570.13 157.15 537.603 99.9897L512.001 55L486.401 99.9897C453.874 157.15 429.772 216.429 414.188 277.352C371.929 223.371 321.539 174.27 263.753 130.846L219.159 97.336L216.447 146.955C211.311 240.951 227.456 333.264 264.444 422.035C216.837 396.704 165.842 375.879 111.797 359.769L55 342.841L75.5917 389.536C113.566 475.652 173.029 552.373 252.334 617.572C315.995 669.911 389.404 712.064 470.525 742.859L476.163 745H547.837L553.475 742.859C634.598 712.063 708.008 669.91 771.666 617.572C850.969 552.373 910.436 475.65 948.408 389.535L969 342.839L912.203 359.77ZM751.527 203.199C748.274 287.552 726.527 370.112 686.622 449.322C682.156 458.186 677.373 467.093 672.133 476.368C659.382 485.556 646.946 495.124 634.839 505.077C632.551 506.958 630.296 508.857 628.04 510.759C630.049 489.48 631.068 468.114 631.068 446.783C631.068 413.785 628.717 381.121 624.066 348.85C659.003 295.719 701.702 246.919 751.527 203.199ZM337.378 449.32C297.473 370.112 275.726 287.554 272.474 203.199C322.291 246.914 364.997 295.721 399.934 348.848C395.283 381.119 392.932 413.784 392.932 446.781C392.932 468.112 393.951 489.477 395.96 510.756C393.704 508.855 391.451 506.956 389.163 505.075C377.056 495.122 364.618 485.554 351.869 476.366C346.662 467.15 341.784 458.066 337.378 449.32ZM292.306 584.71C234.981 537.579 188.865 483.963 154.676 424.789C226.645 452.896 291.871 490.814 349.191 537.941C406.35 584.936 452.495 638.579 486.746 697.784C414.658 669.564 349.274 631.546 292.306 584.71ZM462.319 574.68C453.795 532.634 449.463 489.638 449.463 446.784C449.463 350.599 470.471 257.408 512.001 169.024C553.531 257.41 574.537 350.601 574.537 446.784C574.537 489.663 570.202 532.679 561.669 574.742C543.601 594.742 527.023 615.583 512.022 637.208C497.019 615.563 480.428 594.708 462.319 574.68ZM731.696 584.71C677.253 629.47 615.123 666.176 546.8 693.973C545.655 691.837 544.498 689.714 543.324 687.592C576.961 632.359 621.148 582.059 674.809 537.94C732.131 490.814 797.355 452.894 869.324 424.788C835.137 483.965 789.02 537.58 731.696 584.71Z" fill="white"/>
</svg>
