<svg width="768" height="1000" viewBox="0 0 768 1000" fill="none" xmlns="http://www.w3.org/2000/svg">
<g clip-path="url(#clip0_212_12)">
<path opacity="0.05" d="M1303.6 441.696C1225.19 465.044 1151.21 495.226 1082.15 531.937C1135.81 403.283 1159.23 269.494 1151.78 133.27L1147.85 61.3587L1083.15 109.922C999.317 172.855 926.213 244.018 864.904 322.25C842.299 233.955 807.333 148.043 760.144 65.2025L723.001 0L685.861 65.2025C638.673 148.043 603.706 233.955 581.098 322.25C519.79 244.016 446.686 172.855 362.852 109.922L298.156 61.3565L294.222 133.268C286.77 269.494 310.193 403.281 363.855 531.934C294.788 495.223 220.806 465.041 142.399 441.694L60 417.16L89.8737 484.835C144.966 609.64 231.233 720.831 346.285 815.322C438.643 891.176 545.142 952.267 662.83 996.897L671.009 1000H774.991L783.17 996.897C900.861 952.265 1007.36 891.174 1099.71 815.322C1214.76 720.831 1301.04 609.638 1356.13 484.833L1386 417.158L1303.6 441.696ZM1070.5 214.781C1065.78 337.032 1034.23 456.685 976.335 571.481C969.856 584.328 962.918 597.236 955.316 610.678C936.817 623.994 918.774 637.86 901.21 652.285C897.892 655.011 894.62 657.764 891.347 660.521C894.261 629.681 895.74 598.715 895.74 567.801C895.74 519.979 892.329 472.639 885.582 425.87C936.267 348.869 998.213 278.143 1070.5 214.781ZM469.665 571.479C411.771 456.685 380.221 337.034 375.503 214.781C447.776 278.136 509.733 348.871 560.418 425.867C553.671 472.637 550.26 519.977 550.26 567.799C550.26 598.713 551.739 629.676 554.653 660.516C551.38 657.762 548.111 655.009 544.792 652.283C527.228 637.858 509.183 623.992 490.687 610.675C483.134 597.319 476.056 584.153 469.665 571.479ZM404.275 767.695C321.111 699.39 254.207 621.686 204.607 535.926C309.017 576.661 403.644 631.614 486.803 699.915C569.726 768.023 636.672 845.767 686.362 931.571C581.779 890.673 486.923 835.574 404.275 767.695ZM650.925 753.16C638.558 692.223 632.273 629.91 632.273 567.804C632.273 428.404 662.751 293.345 723.001 165.253C783.252 293.347 813.727 428.407 813.727 567.804C813.727 629.946 807.437 692.288 795.059 753.249C768.845 782.235 744.794 812.439 723.031 843.78C701.266 812.41 677.196 782.185 650.925 753.16ZM1041.73 767.695C962.743 832.565 872.608 885.763 773.487 926.048C771.825 922.952 770.147 919.876 768.444 916.8C817.243 836.752 881.348 763.853 959.198 699.913C1042.36 631.614 1136.98 576.659 1241.39 535.924C1191.8 621.688 1124.89 699.392 1041.73 767.695Z" fill="white"/>
</g>
<defs>
<clipPath id="clip0_212_12">
<rect width="768" height="1000" fill="white"/>
</clipPath>
</defs>
</svg>
