<svg width="430" height="1045" viewBox="0 0 430 1045" fill="none" xmlns="http://www.w3.org/2000/svg">
<g clip-path="url(#clip0_210_4)">
<path opacity="0.05" d="M768.107 474.982C719.678 494.01 673.984 518.609 631.325 548.528C664.469 443.676 678.936 334.638 674.335 223.615L671.905 165.007L631.946 204.587C580.166 255.877 535.014 313.875 497.147 377.633C483.185 305.674 461.588 235.655 432.442 168.14L409.501 115L386.562 168.14C357.415 235.655 335.818 305.674 321.855 377.633C283.988 313.873 238.835 255.877 187.055 204.587L147.096 165.006L144.667 223.613C140.064 334.638 154.531 443.674 187.675 548.527C145.016 518.607 99.3216 494.009 50.8934 474.98L0 454.986L18.4514 510.14C52.4789 611.857 105.761 702.477 176.823 779.487C233.868 841.308 299.647 891.098 372.336 927.471L377.388 930H441.612L446.664 927.471C519.355 891.096 585.136 841.306 642.177 779.487C713.237 702.477 766.523 611.855 800.549 510.139L819 454.984L768.107 474.982ZM624.13 290.047C621.216 389.681 601.73 487.198 565.972 580.757C561.97 591.227 557.685 601.747 552.989 612.702C541.563 623.555 530.419 634.856 519.571 646.613C517.521 648.834 515.5 651.077 513.479 653.324C515.279 628.19 516.193 602.953 516.193 577.758C516.193 538.783 514.085 500.201 509.918 462.084C541.224 399.328 579.484 341.686 624.13 290.047ZM253.028 580.755C217.27 487.198 197.784 389.683 194.87 290.047C239.509 341.681 277.776 399.33 309.082 462.082C304.915 500.199 302.807 538.781 302.807 577.756C302.807 602.951 303.721 628.186 305.521 653.321C303.5 651.076 301.48 648.832 299.431 646.611C288.582 634.854 277.437 623.553 266.013 612.7C261.347 601.815 256.976 591.085 253.028 580.755ZM212.641 740.671C161.274 685.002 119.951 621.674 89.3159 551.78C153.805 584.979 212.251 629.765 263.613 685.431C314.831 740.939 356.179 804.3 386.871 874.23C322.275 840.898 263.688 795.993 212.641 740.671ZM364.983 728.825C357.345 679.162 353.463 628.377 353.463 577.76C353.463 464.15 372.287 354.076 409.501 249.681C446.714 354.078 465.537 464.151 465.537 577.76C465.537 628.406 461.652 679.215 454.007 728.898C437.816 752.521 422.961 777.138 409.519 802.681C396.076 777.114 381.209 752.481 364.983 728.825ZM606.361 740.671C557.577 793.541 501.905 836.897 440.683 869.729C439.657 867.206 438.62 864.699 437.568 862.192C467.709 796.953 507.303 737.541 555.387 685.429C606.751 629.765 665.195 584.977 729.684 551.778C699.051 621.676 657.727 685.004 606.361 740.671Z" fill="white"/>
</g>
<defs>
<clipPath id="clip0_210_4">
<rect width="430" height="1045" fill="white"/>
</clipPath>
</defs>
</svg>
