<svg width="255" height="41" viewBox="0 0 255 41" fill="none" xmlns="http://www.w3.org/2000/svg">
<path d="M59.196 30.352H56.828L54.108 23.088H45.34L42.652 30.352H40.956L47.388 12.912C47.516 12.5493 47.612 12.2293 47.676 11.952C47.74 11.6747 47.804 11.3653 47.868 11.024C47.868 10.512 47.7186 10.1067 47.42 9.808C47.1426 9.488 46.6626 9.328 45.98 9.328C45.8306 9.328 45.7133 9.296 45.628 9.232C45.564 9.14666 45.5213 9.05066 45.5 8.944C45.4573 8.816 45.4786 8.69867 45.564 8.592C45.6706 8.48533 45.788 8.432 45.916 8.432H50.876L59.196 30.352ZM53.628 21.648L49.692 10.992L45.852 21.648H53.628ZM62.9915 30.416V11.792C62.9915 11.2587 62.9275 10.7467 62.7995 10.256C62.6928 9.76533 62.4261 9.36 61.9995 9.04C61.8928 8.976 61.7861 8.92267 61.6795 8.88C61.5728 8.83733 61.4555 8.80533 61.3275 8.784C61.2208 8.76267 61.1035 8.74133 60.9755 8.72C60.8475 8.69867 60.7301 8.67733 60.6235 8.656C60.3035 8.63467 60.1435 8.48533 60.1435 8.208C60.1648 7.93067 60.3248 7.792 60.6235 7.792H63.7275C64.1115 7.792 64.3995 7.90933 64.5915 8.144C64.7835 8.37867 64.8795 8.64533 64.8795 8.944V30.416H62.9915ZM84.1755 22.768C84.1755 25.1147 83.5142 27.0027 82.1915 28.432C80.8901 29.84 79.0875 30.544 76.7835 30.544C74.6075 30.544 72.8261 29.8827 71.4395 28.56C70.0741 27.216 69.3915 25.296 69.3915 22.8C69.3915 21.7333 69.5408 20.72 69.8395 19.76C70.1381 18.8 70.5968 17.968 71.2155 17.264C71.8128 16.5387 72.5701 15.9627 73.4875 15.536C74.4048 15.1093 75.4821 14.896 76.7195 14.896C79.0235 14.896 80.8368 15.6213 82.1595 17.072C83.5035 18.5013 84.1755 20.4 84.1755 22.768ZM81.9995 22.768C81.9995 21.936 81.9035 21.136 81.7115 20.368C81.5195 19.5787 81.2101 18.8853 80.7835 18.288C80.3568 17.6693 79.8021 17.1787 79.1195 16.816C78.4581 16.4533 77.6475 16.272 76.6875 16.272C75.7488 16.272 74.9488 16.4533 74.2875 16.816C73.6261 17.1573 73.0928 17.616 72.6875 18.192C72.2608 18.7893 71.9515 19.4827 71.7595 20.272C71.5888 21.0613 71.5035 21.904 71.5035 22.8C71.5035 23.6533 71.5888 24.464 71.7595 25.232C71.9515 26 72.2501 26.672 72.6555 27.248C73.0821 27.824 73.6261 28.2827 74.2875 28.624C74.9488 28.9653 75.7701 29.136 76.7515 29.136C77.6688 29.136 78.4581 28.9653 79.1195 28.624C79.7808 28.2827 80.3248 27.8133 80.7515 27.216C81.1781 26.64 81.4875 25.968 81.6795 25.2C81.8928 24.432 81.9995 23.6213 81.9995 22.768ZM101.273 22.864H88.7295V21.456H101.273V22.864ZM101.273 22.032H99.4175C99.4388 20.9653 99.3321 20.08 99.0975 19.376C98.8628 18.6507 98.5428 18.0747 98.1375 17.648C97.7108 17.2213 97.2095 16.9227 96.6335 16.752C96.0575 16.56 95.4388 16.464 94.7775 16.464C94.1161 16.464 93.4655 16.5707 92.8255 16.784C92.2068 16.9973 91.6628 17.3387 91.1935 17.808C90.7028 18.2773 90.3081 18.896 90.0095 19.664C89.7321 20.432 89.5935 21.3707 89.5935 22.48C89.5935 24.4 90.0948 25.968 91.0975 27.184C92.1215 28.3787 93.6148 29.04 95.5775 29.168C95.7055 29.1893 95.9615 29.2 96.3455 29.2C96.7295 29.1787 97.1561 29.136 97.6255 29.072C98.1162 29.008 98.6175 28.912 99.1295 28.784C99.6415 28.6347 100.089 28.432 100.473 28.176C100.751 28.112 100.932 28.2507 101.017 28.592C101.124 28.912 101.06 29.136 100.825 29.264C100.271 29.6907 99.4708 30.032 98.4255 30.288C97.4015 30.544 96.2921 30.64 95.0975 30.576C94.0308 30.5547 93.0281 30.352 92.0895 29.968C91.1721 29.584 90.3828 29.0507 89.7215 28.368C89.0388 27.6853 88.5055 26.8533 88.1215 25.872C87.7375 24.8693 87.5455 23.7387 87.5455 22.48C87.5455 21.264 87.7375 20.1973 88.1215 19.28C88.5055 18.3627 89.0388 17.584 89.7215 16.944C90.3828 16.3253 91.1721 15.856 92.0895 15.536C93.0281 15.216 94.0308 15.056 95.0975 15.056C95.8868 15.056 96.6655 15.1947 97.4335 15.472C98.2015 15.7493 98.8735 16.176 99.4495 16.752C100.025 17.328 100.484 18.0533 100.825 18.928C101.167 19.8027 101.316 20.8373 101.273 22.032ZM126.952 30.192H125.032V28.048C124.862 28.24 124.691 28.4213 124.52 28.592C124.35 28.7413 124.2 28.88 124.072 29.008C123.347 29.712 122.515 30.1493 121.576 30.32C120.659 30.4907 119.752 30.5653 118.856 30.544C117.683 30.5653 116.776 30.1707 116.136 29.36C115.496 28.528 115.176 27.568 115.176 26.48C115.176 25.5413 115.422 24.752 115.912 24.112C116.424 23.4507 117.064 22.9173 117.832 22.512C118.6 22.1067 119.432 21.8187 120.328 21.648C121.224 21.456 122.078 21.3493 122.888 21.328C123.016 21.328 123.166 21.328 123.336 21.328C123.528 21.328 123.72 21.328 123.912 21.328C124.104 21.328 124.296 21.328 124.488 21.328C124.68 21.3067 124.862 21.296 125.032 21.296V20.208C125.032 19.7173 124.968 19.248 124.84 18.8C124.734 18.3307 124.542 17.9147 124.264 17.552C123.966 17.1893 123.56 16.9013 123.048 16.688C122.558 16.4533 121.928 16.336 121.16 16.336C120.072 16.336 119.208 16.5707 118.568 17.04C117.928 17.488 117.576 18.1173 117.512 18.928H115.368C115.39 18.5227 115.518 18.0853 115.752 17.616C116.008 17.1467 116.371 16.72 116.84 16.336C117.31 15.952 117.907 15.632 118.632 15.376C119.358 15.12 120.222 14.992 121.224 14.992C123.038 14.992 124.446 15.4613 125.448 16.4C126.451 17.3173 126.952 18.5653 126.952 20.144V30.192ZM125.032 24.912V22.608C124.734 22.608 124.307 22.608 123.752 22.608C123.198 22.608 122.6 22.64 121.96 22.704C121.32 22.768 120.68 22.896 120.04 23.088C119.422 23.2587 118.888 23.5253 118.44 23.888C118.184 24.1013 117.928 24.4213 117.672 24.848C117.416 25.2747 117.288 25.712 117.288 26.16C117.288 26.416 117.31 26.7147 117.352 27.056C117.416 27.376 117.544 27.6853 117.736 27.984C117.928 28.304 118.195 28.5813 118.536 28.816C118.899 29.0293 119.39 29.1467 120.008 29.168C120.371 29.168 120.787 29.1147 121.256 29.008C121.726 28.9013 122.184 28.7307 122.632 28.496C123.08 28.2827 123.496 27.9947 123.88 27.632C124.286 27.248 124.595 26.8 124.808 26.288C124.894 26.0747 124.947 25.8613 124.968 25.648C125.011 25.4133 125.032 25.168 125.032 24.912ZM144.961 22.864H132.417V21.456H144.961V22.864ZM144.961 22.032H143.105C143.126 20.9653 143.02 20.08 142.785 19.376C142.55 18.6507 142.23 18.0747 141.825 17.648C141.398 17.2213 140.897 16.9227 140.321 16.752C139.745 16.56 139.126 16.464 138.465 16.464C137.804 16.464 137.153 16.5707 136.513 16.784C135.894 16.9973 135.35 17.3387 134.881 17.808C134.39 18.2773 133.996 18.896 133.697 19.664C133.42 20.432 133.281 21.3707 133.281 22.48C133.281 24.4 133.782 25.968 134.785 27.184C135.809 28.3787 137.302 29.04 139.265 29.168C139.393 29.1893 139.649 29.2 140.033 29.2C140.417 29.1787 140.844 29.136 141.313 29.072C141.804 29.008 142.305 28.912 142.817 28.784C143.329 28.6347 143.777 28.432 144.161 28.176C144.438 28.112 144.62 28.2507 144.705 28.592C144.812 28.912 144.748 29.136 144.513 29.264C143.958 29.6907 143.158 30.032 142.113 30.288C141.089 30.544 139.98 30.64 138.785 30.576C137.718 30.5547 136.716 30.352 135.777 29.968C134.86 29.584 134.07 29.0507 133.409 28.368C132.726 27.6853 132.193 26.8533 131.809 25.872C131.425 24.8693 131.233 23.7387 131.233 22.48C131.233 21.264 131.425 20.1973 131.809 19.28C132.193 18.3627 132.726 17.584 133.409 16.944C134.07 16.3253 134.86 15.856 135.777 15.536C136.716 15.216 137.718 15.056 138.785 15.056C139.574 15.056 140.353 15.1947 141.121 15.472C141.889 15.7493 142.561 16.176 143.137 16.752C143.713 17.328 144.172 18.0533 144.513 18.928C144.854 19.8027 145.004 20.8373 144.961 22.032ZM158.061 26.32C158.061 27.408 157.773 28.2827 157.197 28.944C156.643 29.584 155.8 30.0427 154.669 30.32C154.136 30.4907 153.549 30.5867 152.909 30.608C152.291 30.6507 151.683 30.6507 151.085 30.608C150.488 30.5653 149.933 30.4907 149.421 30.384C148.909 30.2773 148.515 30.1707 148.237 30.064C148.024 29.9787 147.864 29.8507 147.757 29.68C147.672 29.488 147.64 29.296 147.661 29.104C147.683 28.9333 147.757 28.784 147.885 28.656C148.035 28.5067 148.237 28.432 148.493 28.432C148.941 28.6667 149.464 28.88 150.061 29.072C150.659 29.264 151.341 29.36 152.109 29.36C152.621 29.36 153.112 29.328 153.581 29.264C154.072 29.2 154.499 29.072 154.861 28.88C155.224 28.6667 155.512 28.3893 155.725 28.048C155.96 27.6853 156.077 27.216 156.077 26.64C156.077 26.064 155.896 25.5733 155.533 25.168C155.171 24.7413 154.669 24.336 154.029 23.952C153.603 23.7387 153.133 23.5253 152.621 23.312C152.131 23.0987 151.629 22.8747 151.117 22.64C150.627 22.4053 150.147 22.1387 149.677 21.84C149.229 21.5413 148.835 21.1787 148.493 20.752C148.173 20.368 147.992 19.8667 147.949 19.248C147.907 18.6293 148.003 18.032 148.237 17.456C148.515 16.816 148.899 16.3147 149.389 15.952C149.901 15.568 150.499 15.2907 151.181 15.12C151.843 14.9707 152.557 14.9173 153.325 14.96C154.115 14.9813 154.925 15.0773 155.757 15.248C155.885 15.2907 156.003 15.3227 156.109 15.344C156.216 15.3653 156.323 15.3867 156.429 15.408C156.536 15.4507 156.632 15.4827 156.717 15.504C156.824 15.5253 156.92 15.536 157.005 15.536V17.296C156.749 17.168 156.429 17.0293 156.045 16.88C155.683 16.7093 155.213 16.5387 154.637 16.368C154.211 16.2827 153.72 16.2293 153.165 16.208C152.632 16.1653 152.12 16.1973 151.629 16.304C151.139 16.4107 150.712 16.6133 150.349 16.912C150.008 17.2107 149.827 17.6373 149.805 18.192C149.784 18.512 149.816 18.8107 149.901 19.088C150.008 19.3653 150.179 19.6213 150.413 19.856C150.989 20.4107 151.576 20.8373 152.173 21.136C152.771 21.4133 153.368 21.6693 153.965 21.904C154.563 22.16 155.16 22.4587 155.757 22.8C156.355 23.1413 156.941 23.6427 157.517 24.304C157.688 24.5173 157.816 24.816 157.901 25.2C158.008 25.5627 158.061 25.936 158.061 26.32ZM169.394 30.48C169.074 30.544 168.68 30.5867 168.21 30.608C167.741 30.6293 167.378 30.64 167.122 30.64C166.162 30.64 165.394 30.544 164.818 30.352C164.242 30.1813 163.805 29.9147 163.506 29.552C163.208 29.168 163.005 28.7093 162.898 28.176C162.813 27.6213 162.77 26.9813 162.77 26.256V16.912H160.242V15.504H162.77V12.528L164.658 10.8V15.504H169.074V16.912H164.69V26.608C164.69 27.184 164.765 27.6533 164.914 28.016C165.064 28.3573 165.298 28.6133 165.618 28.784C165.96 28.9973 166.482 29.1573 167.186 29.264C167.89 29.3493 168.626 29.328 169.394 29.2V30.48ZM175.846 8.944V19.248H175.942C176.433 18.032 177.126 17.0507 178.022 16.304C178.918 15.536 180.177 15.152 181.798 15.152C182.545 15.152 183.195 15.312 183.75 15.632C184.326 15.9307 184.806 16.336 185.19 16.848C185.574 17.3813 185.862 17.9893 186.054 18.672C186.246 19.3547 186.342 20.0693 186.342 20.816V30.32H184.518V20.72C184.518 20.2507 184.465 19.7813 184.358 19.312C184.251 18.8213 184.07 18.3947 183.814 18.032C183.558 17.6693 183.217 17.3707 182.79 17.136C182.363 16.9013 181.841 16.784 181.222 16.784C180.369 16.784 179.494 17.0827 178.598 17.68C177.702 18.2773 176.945 19.3227 176.326 20.816C176.134 21.2427 176.006 21.6907 175.942 22.16C175.878 22.6293 175.846 23.056 175.846 23.44V30.32H173.958V11.76C173.958 11.2267 173.894 10.7253 173.766 10.256C173.659 9.76533 173.393 9.36 172.966 9.04C172.859 8.976 172.742 8.92267 172.614 8.88C172.507 8.83733 172.401 8.80533 172.294 8.784C172.166 8.76267 172.038 8.752 171.91 8.752C171.782 8.73067 171.665 8.70933 171.558 8.688C171.238 8.66667 171.089 8.51733 171.11 8.24C171.131 7.94133 171.291 7.792 171.59 7.792H174.694C175.078 7.792 175.366 7.90933 175.558 8.144C175.75 8.37867 175.846 8.64533 175.846 8.944ZM204.336 22.864H191.792V21.456H204.336V22.864ZM204.336 22.032H202.48C202.501 20.9653 202.395 20.08 202.16 19.376C201.925 18.6507 201.605 18.0747 201.2 17.648C200.773 17.2213 200.272 16.9227 199.696 16.752C199.12 16.56 198.501 16.464 197.84 16.464C197.179 16.464 196.528 16.5707 195.888 16.784C195.269 16.9973 194.725 17.3387 194.256 17.808C193.765 18.2773 193.371 18.896 193.072 19.664C192.795 20.432 192.656 21.3707 192.656 22.48C192.656 24.4 193.157 25.968 194.16 27.184C195.184 28.3787 196.677 29.04 198.64 29.168C198.768 29.1893 199.024 29.2 199.408 29.2C199.792 29.1787 200.219 29.136 200.688 29.072C201.179 29.008 201.68 28.912 202.192 28.784C202.704 28.6347 203.152 28.432 203.536 28.176C203.813 28.112 203.995 28.2507 204.08 28.592C204.187 28.912 204.123 29.136 203.888 29.264C203.333 29.6907 202.533 30.032 201.488 30.288C200.464 30.544 199.355 30.64 198.16 30.576C197.093 30.5547 196.091 30.352 195.152 29.968C194.235 29.584 193.445 29.0507 192.784 28.368C192.101 27.6853 191.568 26.8533 191.184 25.872C190.8 24.8693 190.608 23.7387 190.608 22.48C190.608 21.264 190.8 20.1973 191.184 19.28C191.568 18.3627 192.101 17.584 192.784 16.944C193.445 16.3253 194.235 15.856 195.152 15.536C196.091 15.216 197.093 15.056 198.16 15.056C198.949 15.056 199.728 15.1947 200.496 15.472C201.264 15.7493 201.936 16.176 202.512 16.752C203.088 17.328 203.547 18.0533 203.888 18.928C204.229 19.8027 204.379 20.8373 204.336 22.032ZM215.644 30.48C215.324 30.544 214.93 30.5867 214.46 30.608C213.991 30.6293 213.628 30.64 213.372 30.64C212.412 30.64 211.644 30.544 211.068 30.352C210.492 30.1813 210.055 29.9147 209.756 29.552C209.458 29.168 209.255 28.7093 209.148 28.176C209.063 27.6213 209.02 26.9813 209.02 26.256V16.912H206.492V15.504H209.02V12.528L210.908 10.8V15.504H215.324V16.912H210.94V26.608C210.94 27.184 211.015 27.6533 211.164 28.016C211.314 28.3573 211.548 28.6133 211.868 28.784C212.21 28.9973 212.732 29.1573 213.436 29.264C214.14 29.3493 214.876 29.328 215.644 29.2V30.48ZM222.672 9.968C222.672 10.3733 222.523 10.736 222.224 11.056C221.947 11.376 221.573 11.536 221.104 11.536C220.656 11.536 220.272 11.3867 219.952 11.088C219.632 10.7893 219.472 10.416 219.472 9.968C219.472 9.52 219.632 9.14667 219.952 8.848C220.272 8.528 220.656 8.368 221.104 8.368C221.509 8.368 221.861 8.51733 222.16 8.816C222.459 9.11467 222.629 9.49867 222.672 9.968ZM220.304 30.384V19.44C220.304 18.9067 220.251 18.4053 220.144 17.936C220.037 17.4453 219.771 17.04 219.344 16.72C219.237 16.656 219.131 16.6027 219.024 16.56C218.917 16.5173 218.811 16.4853 218.704 16.464C218.576 16.4427 218.448 16.4213 218.32 16.4C218.213 16.3787 218.107 16.3573 218 16.336C217.68 16.3147 217.52 16.1653 217.52 15.888C217.541 15.6107 217.701 15.472 218 15.472H221.008C221.392 15.472 221.68 15.5893 221.872 15.824C222.064 16.0587 222.16 16.3253 222.16 16.624V30.384H220.304ZM240.144 18.832H237.872C237.808 18.128 237.435 17.552 236.752 17.104C236.091 16.656 235.141 16.432 233.904 16.432C233.243 16.432 232.592 16.5493 231.952 16.784C231.333 16.9973 230.779 17.3493 230.288 17.84C229.797 18.3307 229.403 18.96 229.104 19.728C228.827 20.496 228.688 21.424 228.688 22.512C228.688 24.3253 229.189 25.8613 230.192 27.12C231.216 28.3573 232.709 29.04 234.672 29.168C234.8 29.1893 235.045 29.1893 235.408 29.168C235.792 29.1467 236.229 29.104 236.72 29.04C237.189 28.9547 237.68 28.848 238.192 28.72C238.704 28.5707 239.152 28.368 239.536 28.112C239.664 28.0907 239.781 28.1227 239.888 28.208C239.995 28.2933 240.069 28.4107 240.112 28.56C240.176 28.688 240.187 28.8267 240.144 28.976C240.123 29.104 240.059 29.2 239.952 29.264C239.397 29.6907 238.587 30.032 237.52 30.288C236.475 30.544 235.355 30.64 234.16 30.576C233.093 30.5547 232.091 30.3627 231.152 30C230.235 29.616 229.445 29.072 228.784 28.368C228.101 27.6853 227.568 26.8533 227.184 25.872C226.8 24.8907 226.608 23.7707 226.608 22.512C226.608 21.296 226.8 20.2293 227.184 19.312C227.568 18.3733 228.101 17.5947 228.784 16.976C229.445 16.3573 230.235 15.888 231.152 15.568C232.091 15.2267 233.093 15.056 234.16 15.056C235.76 15.056 237.093 15.4293 238.16 16.176C239.248 16.9013 239.909 17.7867 240.144 18.832ZM253.249 26.32C253.249 27.408 252.961 28.2827 252.385 28.944C251.83 29.584 250.988 30.0427 249.857 30.32C249.324 30.4907 248.737 30.5867 248.097 30.608C247.478 30.6507 246.87 30.6507 246.273 30.608C245.676 30.5653 245.121 30.4907 244.609 30.384C244.097 30.2773 243.702 30.1707 243.425 30.064C243.212 29.9787 243.052 29.8507 242.945 29.68C242.86 29.488 242.828 29.296 242.849 29.104C242.87 28.9333 242.945 28.784 243.073 28.656C243.222 28.5067 243.425 28.432 243.681 28.432C244.129 28.6667 244.652 28.88 245.249 29.072C245.846 29.264 246.529 29.36 247.297 29.36C247.809 29.36 248.3 29.328 248.769 29.264C249.26 29.2 249.686 29.072 250.049 28.88C250.412 28.6667 250.7 28.3893 250.913 28.048C251.148 27.6853 251.265 27.216 251.265 26.64C251.265 26.064 251.084 25.5733 250.721 25.168C250.358 24.7413 249.857 24.336 249.217 23.952C248.79 23.7387 248.321 23.5253 247.809 23.312C247.318 23.0987 246.817 22.8747 246.305 22.64C245.814 22.4053 245.334 22.1387 244.865 21.84C244.417 21.5413 244.022 21.1787 243.681 20.752C243.361 20.368 243.18 19.8667 243.137 19.248C243.094 18.6293 243.19 18.032 243.425 17.456C243.702 16.816 244.086 16.3147 244.577 15.952C245.089 15.568 245.686 15.2907 246.369 15.12C247.03 14.9707 247.745 14.9173 248.513 14.96C249.302 14.9813 250.113 15.0773 250.945 15.248C251.073 15.2907 251.19 15.3227 251.297 15.344C251.404 15.3653 251.51 15.3867 251.617 15.408C251.724 15.4507 251.82 15.4827 251.905 15.504C252.012 15.5253 252.108 15.536 252.193 15.536V17.296C251.937 17.168 251.617 17.0293 251.233 16.88C250.87 16.7093 250.401 16.5387 249.825 16.368C249.398 16.2827 248.908 16.2293 248.353 16.208C247.82 16.1653 247.308 16.1973 246.817 16.304C246.326 16.4107 245.9 16.6133 245.537 16.912C245.196 17.2107 245.014 17.6373 244.993 18.192C244.972 18.512 245.004 18.8107 245.089 19.088C245.196 19.3653 245.366 19.6213 245.601 19.856C246.177 20.4107 246.764 20.8373 247.361 21.136C247.958 21.4133 248.556 21.6693 249.153 21.904C249.75 22.16 250.348 22.4587 250.945 22.8C251.542 23.1413 252.129 23.6427 252.705 24.304C252.876 24.5173 253.004 24.816 253.089 25.2C253.196 25.5627 253.249 25.936 253.249 26.32Z" fill="white"/>
<g clip-path="url(#clip0_1_367)">
<path d="M30.5186 17.2868C28.6323 17.9729 26.8525 18.8597 25.1909 19.9384C26.4819 16.1581 27.0454 12.227 26.8661 8.22422L26.7715 6.11122L25.2151 7.53818C23.1983 9.38736 21.4395 11.4784 19.9646 13.7771C19.4208 11.1827 18.5796 8.65831 17.4443 6.22416L16.5508 4.30829L15.6573 6.22416C14.522 8.65831 13.6808 11.1827 13.1369 13.7771C11.662 11.4783 9.9033 9.38736 7.88646 7.53818L6.33004 6.11115L6.2354 8.22415C6.05613 12.227 6.61961 16.1581 7.91059 19.9384C6.24902 18.8597 4.4692 17.9728 2.5829 17.2868L0.600586 16.5659L1.31928 18.5544C2.64465 22.2216 4.72003 25.4888 7.48791 28.2653C9.70981 30.4941 12.2719 32.2892 15.1032 33.6006L15.3 33.6917H17.8015L17.9983 33.6006C20.8296 32.2891 23.3918 30.494 25.6136 28.2653C28.3814 25.4888 30.4569 22.2216 31.7822 18.5543L32.5009 16.5658L30.5186 17.2868ZM24.9107 10.6193C24.7972 14.2114 24.0382 17.7273 22.6454 21.1004C22.4895 21.4779 22.3226 21.8571 22.1397 22.2521C21.6947 22.6434 21.2606 23.0508 20.8381 23.4747C20.7582 23.5548 20.6795 23.6357 20.6008 23.7167C20.6709 22.8105 20.7065 21.9006 20.7065 20.9923C20.7065 19.5871 20.6244 18.1961 20.4621 16.8218C21.6814 14.5592 23.1717 12.4811 24.9107 10.6193ZM10.4561 21.1003C9.06333 17.7273 8.30433 14.2115 8.19082 10.6193C9.92954 12.4809 11.4201 14.5593 12.6394 16.8217C12.4771 18.196 12.395 19.587 12.395 20.9922C12.395 21.9005 12.4306 22.8104 12.5007 23.7165C12.422 23.6356 12.3433 23.5547 12.2635 23.4746C11.841 23.0508 11.4068 22.6433 10.9619 22.252C10.7802 21.8596 10.6099 21.4727 10.4561 21.1003ZM8.88301 26.8658C6.88228 24.8588 5.27272 22.5756 4.07947 20.0557C6.59133 21.2526 8.86781 22.8673 10.8684 24.8742C12.8634 26.8754 14.4739 29.1598 15.6693 31.6811C13.1533 30.4793 10.8713 28.8603 8.88301 26.8658ZM14.8168 26.4387C14.5193 24.6482 14.3681 22.8172 14.3681 20.9923C14.3681 16.8963 15.1013 12.9278 16.5508 9.16398C18.0003 12.9278 18.7334 16.8964 18.7334 20.9923C18.7334 22.8183 18.5821 24.6501 18.2843 26.4414C17.6537 27.293 17.0751 28.1806 16.5515 29.1015C16.0279 28.1797 15.4488 27.2916 14.8168 26.4387ZM24.2185 26.8658C22.3184 28.7719 20.1499 30.335 17.7653 31.5188C17.7254 31.4278 17.685 31.3374 17.644 31.247C18.818 28.895 20.3602 26.7529 22.2331 24.8741C24.2337 22.8673 26.5102 21.2525 29.022 20.0556C27.8288 22.5756 26.2193 24.8588 24.2185 26.8658Z" fill="white"/>
</g>
<defs>
<clipPath id="clip0_1_367">
<rect width="31.9003" height="32" fill="white" transform="translate(0.600586 3)"/>
</clipPath>
</defs>
</svg>
