<svg width="32" height="32" viewBox="0 0 32 32" fill="none" xmlns="http://www.w3.org/2000/svg">
<path fill-rule="evenodd" clip-rule="evenodd" d="M27.208 4.65067C24.2133 1.65333 20.232 0.00133333 15.9907 0C7.25067 0 0.137333 7.112 0.133333 15.856C0.132 18.6507 0.862667 21.3787 2.25067 23.784L0 32L8.40533 29.7947C10.7213 31.0587 13.3293 31.724 15.9827 31.7253H15.9893C24.728 31.7253 31.8427 24.612 31.8467 15.868C31.8493 11.632 30.2013 7.64667 27.208 4.65067ZM15.9907 29.0467H15.9853C13.62 29.0467 11.3013 28.4107 9.27733 27.2093L8.796 26.924L3.808 28.232L5.14 23.368L4.82667 22.8693C3.50667 20.7707 2.81067 18.3453 2.812 15.856C2.81467 8.58933 8.728 2.67733 15.9973 2.67733C19.5173 2.67733 22.8267 4.05067 25.3147 6.54133C27.8027 9.03333 29.172 12.344 29.1707 15.8653C29.1667 23.1347 23.2547 29.0467 15.9907 29.0467ZM23.22 19.176C22.824 18.9773 20.876 18.0187 20.512 17.8867C20.1493 17.7547 19.8853 17.688 19.62 18.084C19.3547 18.48 18.5973 19.3733 18.3653 19.6387C18.1347 19.9027 17.9027 19.936 17.5067 19.7373C17.1107 19.5387 15.8333 19.1213 14.32 17.7707C13.1427 16.72 12.3467 15.4227 12.116 15.0253C11.8853 14.628 12.092 14.4147 12.2893 14.2173C12.468 14.04 12.6853 13.7547 12.884 13.5227C13.084 13.2933 13.1493 13.128 13.2827 12.8627C13.4147 12.5987 13.3493 12.3667 13.2493 12.168C13.1493 11.9707 12.3573 10.02 12.028 9.22667C11.7067 8.45333 11.38 8.55867 11.136 8.54667C10.9053 8.53467 10.6413 8.53333 10.376 8.53333C10.112 8.53333 9.68267 8.632 9.32 9.02933C8.95733 9.42667 7.93333 10.3853 7.93333 12.3347C7.93333 14.2853 9.35333 16.1693 9.55067 16.4333C9.748 16.6973 12.344 20.7 16.3187 22.416C17.264 22.824 18.0027 23.068 18.5773 23.2507C19.5267 23.552 20.3907 23.5093 21.0733 23.408C21.8347 23.2947 23.4173 22.4493 23.748 21.524C24.0787 20.5987 24.0787 19.804 23.9787 19.64C23.88 19.4733 23.616 19.3747 23.22 19.176Z" fill="white"/>
</svg>
